<svg version="1.1" xmlns="http://www.w3.org/2000/svg" xmlns:xlink="http://www.w3.org/1999/xlink" x="0px" y="0px"
	 width="512px" height="512px" viewBox="0 0 512 512" enable-background="new 0 0 512 512" xml:space="preserve">
<path id="headphones-2-icon" d="M360.697,294.496c19.591,0,35.473,15.882,35.473,35.473v87.614
	c0,19.591-15.882,35.473-35.473,35.473h-24.606v-158.56H360.697z M151.303,294.496c-19.591,0-35.473,15.882-35.473,35.473v87.614
	c0,19.591,15.882,35.473,35.473,35.473h24.606v-158.56H151.303z M256,58.944c-121.56,0-206,98.146-206,222.329v96.502h35.093
	v-96.502c0-0.206,0.007-0.41,0.007-0.617c0-108.25,85.45-162.475,170.9-162.648c85.45,0.174,170.9,54.398,170.9,162.648
	c0,0.207,0.007,0.411,0.007,0.617v96.502H462v-96.502C462,157.09,377.56,58.944,256,58.944z"/>
</svg>